<?xml version="1.0" encoding="UTF-8"?>
<svg width="1080px" height="810px" viewBox="0 0 1080 810" version="1.1" xmlns="http://www.w3.org/2000/svg" xmlns:xlink="http://www.w3.org/1999/xlink">
    <title>Artboard Copy 41</title>
    <g id="Artboard-Copy-41" stroke="none" stroke-width="1" fill="none" fill-rule="evenodd">
        <rect fill="#F6FFFF" x="0" y="0" width="1080" height="810"></rect>
        <path d="M1080,393 L841,393 L841,354 C841,349.581722 837.418278,346 833,346 L813.050491,346 L813.050491,346 L812.531695,340.71232 C798.939908,202.181854 682.457217,96.568444 543.261575,96.568444 C404.185593,96.568444 287.920105,202.33456 274.796275,340.789946 L274.302427,346 L274.302427,346 L256.581514,346 C252.163236,346 248.581514,349.581722 248.581514,354 L248.581514,393 L248.581514,393 L1.00186526e-12,393 C-24.4735149,308.356754 -38.8282233,244.87432 -43.0641254,202.552697 C-47.3000275,160.231074 -34.319692,96.7486394 -4.12311877,12.1053935 L1106.69251,23.2336245 C1121.44792,105.40393 1126.17605,167.031659 1120.87688,208.116812 C1115.57771,249.201965 1101.95209,310.829694 1080,393 Z" id="Path-Copy" stroke="#3CB78B" stroke-width="4"></path>
        <path d="M1080,369.128656 L865.182739,369.128656 L865.182739,337.821418 C865.182739,328.984862 858.019295,321.821418 849.182739,321.821418 L836.443601,321.821418 L836.443601,321.821418 C818.401844,178.785232 696.753656,71.5171601 552.584119,71.5171601 L539.147796,71.5171601 C394.014384,71.5171601 270.934218,178.165492 250.277928,321.821418 L250.277928,321.821418 L250.277928,321.821418 L240.666235,321.821418 C231.829679,321.821418 224.666235,328.984862 224.666235,337.821418 L224.666235,369.128656 L224.666235,369.128656 L-5.68434189e-13,369.128656 L-5.68434189e-13,-7.38964445e-13 L1081.15422,-7.38964445e-13 L1080,369.128656 Z" id="Path" fill="#3CB78B"></path>
    </g>
</svg>